<?xml version="1.0" encoding="utf-8"?>
<!-- Generator: Adobe Illustrator 26.1.0, SVG Export Plug-In . SVG Version: 6.00 Build 0)  -->
<svg version="1.1" id="Capa_1" xmlns="http://www.w3.org/2000/svg" xmlns:xlink="http://www.w3.org/1999/xlink" x="0px" y="0px"
	 viewBox="0 0 500 500" style="enable-background:new 0 0 500 500;" xml:space="preserve">
<style type="text/css">
	.st0{fill:#660099;}
</style>
<g id="Artwork">
	<path class="st0" d="M475,205.9h-47.1c-3.2-19.9-8.8-37.9-16.6-53.6l34.8-34.8c9.8-9.9,9.8-25.8,0-35.7l-28-27.9
		c-9.9-9.8-25.8-9.8-35.7,0l-34.8,34.8C331,80.5,313.9,75.2,294,72V24.9C294,11.2,282.8,0,269.1,0h-38.2C217.2,0,206,11.2,206,24.9
		V72c-19.9,3.2-37.9,8.8-53.6,16.6l-34.8-34.8c-9.9-9.8-25.8-9.8-35.7,0L53.8,81.7c-9.8,9.9-9.8,25.8,0,35.7l34.7,34.7
		c-8,14.2-13.8,37.2-16.5,53.7H24.9C11.2,205.9,0,217.1,0,230.8l0,0V269c0,13.8,11.2,25,24.9,25l0,0H72c2.7,16.5,8.5,39.4,16.5,53.7
		l-34.7,34.7c-9.8,9.9-9.8,25.8,0,35.7L81.7,446c9.9,9.8,25.8,9.8,35.7,0l34.8-34.8c15.7,7.8,33.8,13.4,53.6,16.6V475
		c0,13.7,11.2,24.9,24.9,24.9h38.2c13.7,0,24.9-11.2,24.9-24.9v-47.1c19.9-3.2,37-8.5,53.6-16.6l34.8,34.8c9.9,9.8,25.8,9.8,35.7,0
		l27.9-27.9c9.8-9.9,9.8-25.8,0-35.7l-34.7-34.7c7.8-15.7,13.4-33.8,16.6-53.6h47.1c13.7,0,24.9-11.2,24.9-24.9v-38.2
		C499.9,217.1,488.8,205.9,475,205.9L475,205.9z M250,180.6c47.4,0,69.4,22.1,69.4,69.4s-22.1,69.4-69.4,69.4s-69.4-22.1-69.4-69.4
		S202.6,180.6,250,180.6z"/>
</g>
</svg>
