<?xml version="1.0" encoding="utf-8"?>
<!-- Generator: Adobe Illustrator 26.1.0, SVG Export Plug-In . SVG Version: 6.00 Build 0)  -->
<svg version="1.1" id="Capa_1" xmlns="http://www.w3.org/2000/svg" xmlns:xlink="http://www.w3.org/1999/xlink" x="0px" y="0px"
	 viewBox="0 0 500 500" style="enable-background:new 0 0 500 500;" xml:space="preserve">
<style type="text/css">
	.st0{fill-rule:evenodd;clip-rule:evenodd;fill:#660099;}
</style>
<desc>Created with sketchtool.</desc>
<g id="Page-1">
	<g id="Sábana-de-iconos-Copy" transform="translate(-1654.000000, -2200.000000)">
		<path id="ic_bullseye_masa" class="st0" d="M1960.9,2421.6l-13.4,13.4L1960.9,2421.6l9-9l37.2-37.2l-37.2,37.2l37.2-37.2l-21.1-22
			l-58.7,58.7c-15.7-12-38.3-20.3-70.9-21.1c-4.1-0.1-15.7-0.1-15.7-0.1c-103.2,0.9-103.2,84.7-103.2,112.2c0,27.7,0,112,105,113.5
			l4.8,0.1l10.5-0.1c105.3-1.8,105.3-85,105.3-112.3c0-14.4-0.1-43.9-15.4-69.3L1960.9,2421.6z M2007.1,2375.5
			c22.8,28.9,38.9,69.9,38.9,128.8c0,180.5-149.4,194.6-186.8,195.2c-3.6,0.1-7.5,0.1-11.6,0.1c-2.1,0-4.3,0-6.3-0.1
			c-39.3-0.6-186.8-14.8-186.8-196.5c0-181.4,146.2-194.8,185.5-195.2c1.3,0,2.6,0,4.1,0c5,0,10.1,0.1,14.5,0.2
			c22.2,0.5,81.5,6,127.6,45.4l-11.7,11.7l11.7-11.7l24.7-24.7v-80c0-2.7,0.9-5.1,2.1-7.4c0.1-0.1,0.1-0.2,0.2-0.4
			c0.9-1.5,1.9-2.8,3.3-3.9c0.1-0.1,0.2-0.4,0.4-0.5l39.8-31.8c0.4-0.3,0.9-0.4,1.3-0.6c2.7-2.4,6.2-4,10.2-4
			c8.4,0,15.3,6.8,15.3,15.3v41.7c5.8-3.6,13.5-3.1,18.6,1.9c4.3,4.3,5.3,10.4,3.5,15.7l33.3,0.4c8.4,0.1,15.1,7,15.1,15.4
			c0,1.1-0.4,1.9-0.6,2.9c-0.1,0.5-0.2,1.1-0.4,1.6c-0.3,0.9-0.6,1.8-1.1,2.6c-0.4,0.7-0.5,1.5-0.9,2.1l-28.8,41.8
			c-0.1,0.2-0.4,0.2-0.5,0.4c-2.8,3.9-7.1,6.7-12.2,6.7h-75.4L2007.1,2375.5l-37.2,37.2L2007.1,2375.5L2007.1,2375.5z
			 M2097.2,2322.2l17-21l-32.4-0.4l-21.3,21.3L2097.2,2322.2L2097.2,2322.2z M2056.5,2282.9v-39.7l-19.1,16.8v42.1L2056.5,2282.9z
			 M1834.7,2461.9c-8.4,0.7-14.6,8.1-13.9,16.5l3.8,44c0.1,1.5,0.5,2.9,1,4.3c0.1,0.1,0.1,0.3,0.2,0.4c0.6,1.5,1.6,2.8,2.6,4
			c0.4,0.4,0.7,0.7,1.1,1.1c1,0.9,2.1,1.6,3.3,2.3c0.4,0.2,0.8,0.5,1.2,0.6c0.2,0.1,0.4,0.2,0.6,0.3c1.3,0.5,2.6,0.6,4,0.7
			c0.4,0,0.6,0.2,1,0.2l49.2,0.9h0.3c8.3,0,15.1-6.7,15.3-15c0.1-8.4-6.5-15.3-15-15.5l-13.4-0.2l49-49c5.6,12.9,7.4,28.8,7.4,46.9
			c0,48.2-12.8,80.7-75.1,81.8l-9.9,0.1l-4.7-0.1c-62.2-0.9-74.9-33.8-74.9-83c0-48.6,12.4-81.1,72.8-81.7c1.6,0,11.3,0.1,14.9,0.1
			c22.3,0.5,38.3,4.9,49.9,12.4l-53.2,53.2l-1-11.4C1850.5,2467.4,1843.6,2461.4,1834.7,2461.9z"/>
	</g>
</g>
</svg>
