<?xml version="1.0" encoding="utf-8"?>
<!-- Generator: Adobe Illustrator 26.1.0, SVG Export Plug-In . SVG Version: 6.00 Build 0)  -->
<svg version="1.1" id="Capa_1" xmlns="http://www.w3.org/2000/svg" xmlns:xlink="http://www.w3.org/1999/xlink" x="0px" y="0px"
	 viewBox="0 0 500 500" style="enable-background:new 0 0 500 500;" xml:space="preserve">
<style type="text/css">
	.st0{fill-rule:evenodd;clip-rule:evenodd;fill:#660099;}
</style>
<desc>Created with sketchtool.</desc>
<g id="Page-1">
	<g id="Sábana-de-iconos-Copy" transform="translate(-1360.000000, -694.000000)">
		<path id="ic_team_masa" class="st0" d="M1463.8,957.1c-18.5,0-32.9-4.6-42.8-13.7c-10.4-9.5-15.6-23.5-15.6-41.7
			s5.3-32.3,15.6-41.8c10-9.2,24.4-13.7,42.8-13.7c18.5,0,32.9,4.6,42.9,13.7c10.4,9.5,15.6,23.6,15.6,41.8s-5.3,32.2-15.6,41.7
			C1496.7,952.5,1482.3,957.1,1463.8,957.1z M1529.9,969.1l64.4-82.5c1.7-2.1,5.3-1,5.3,1.6v95.9c0,1.1-0.4,2-1,2.8l-29.6,36.9
			c-0.7,0.9-1.1,1.9-1.1,3v48.2l1.1,91.5c0.1,3.5-2.9,6.3-6.5,6.3h-112.2v-98.4c0-8.2-7-14.9-15.7-14.9s-15.7,6.7-15.7,14.9v98.4
			H1368c-3.7,0-6.7-2.8-6.7-6.3l-1.3-123.7c0-17.6,5.8-32.7,16.7-43.5c11.9-11.8,29.7-18.1,51.3-18.1h71.3c6.9,0,13.7-0.4,19.6-3.3
			C1522.6,976.3,1529.9,969.1,1529.9,969.1z M1843.2,999.5c11,10.8,16.7,25.9,16.7,43.6l-1.3,123.7c0,3.4-2.9,6.3-6.6,6.3h-49.1
			c-1.5,0-2.7-1.1-2.7-2.6v-95.9c0-8.2-7-14.9-15.6-14.9c-8.7,0-15.7,6.7-15.7,14.9v95.9c0,1.4-1.1,2.6-2.7,2.6h-105.8
			c-5.2,0-9.4-4.1-9.3-9l1.1-88.7V1027c0-1.1-0.4-2.1-1.1-2.9l-29.4-36.7c-0.8-1-1.2-2.2-1.2-3.4v-96.3c0-2.5,3.3-3.6,4.8-1.6
			l64.8,83c0,0,7.3,7.2,10.9,8.9c5.9,2.8,12.7,3.3,19.6,3.3h71.2C1813.5,981.4,1831.2,987.7,1843.2,999.5z M1713.3,943.4
			c-10.4-9.5-15.7-23.5-15.7-41.7s5.3-32.3,15.6-41.7c10-9.2,24.4-13.8,42.9-13.8c18.4,0,32.9,4.7,42.8,13.8
			c10.3,9.5,15.6,23.5,15.6,41.7s-5.3,32.2-15.6,41.7c-10,9.1-24.3,13.7-42.8,13.7C1737.7,957.1,1723.3,952.5,1713.3,943.4z
			 M1603.9,808.3c-5.8-2.2-9.8-7.6-9.7-13.9l0.4-64.6c0.1-8.2,7-14.9,15.7-14.9h0.1c8.7,0.1,15.6,6.8,15.6,15l-0.4,64.6
			c-0.1,8.2-7,14.9-15.7,14.9h-0.1c-0.2,0-0.4-0.1-0.6-0.1c-0.2,0.1-0.4,0.1-0.6,0.1h-0.1C1606.9,809.4,1605.4,808.9,1603.9,808.3z
			 M1541.8,824.4l-29.4-28.4c-6.1-5.8-6-15.3,0.1-21.1s16.1-5.8,22.2,0.1l29.4,28.4c6.1,5.8,6,15.4-0.1,21.1c-3.1,2.8-7,4.3-11,4.3
			c-0.2,0-0.4-0.1-0.6-0.1s-0.4,0.1-0.6,0.1c-1.6,0-3.1-0.4-4.5-1.1C1545.2,827,1543.3,825.9,1541.8,824.4z M1661.4,827.7
			c-1.9-0.7-3.8-1.8-5.3-3.3c-6.2-5.8-6.2-15.3-0.1-21.1l29.4-28.3c6.1-5.9,16-5.9,22.2-0.1c6.2,5.8,6.2,15.2,0.1,21.1l-29.4,28.4
			c-3.1,3-7.1,4.5-11.2,4.5c-0.2,0-0.4-0.1-0.6-0.1s-0.4,0.1-0.6,0.1C1664.2,828.9,1662.8,828.4,1661.4,827.7z"/>
	</g>
</g>
</svg>
