<?xml version="1.0" encoding="UTF-8"?>
<svg xmlns="http://www.w3.org/2000/svg" viewBox="0 0 24 24"><path fill="#609" d="M12 18.3c-.2 0-.4-.2-.4-.4V17h-.2c-.9-.1-1.8-.4-2.6-.9-.2-.1-.2-.3-.2-.4 0-.3.2-.5.5-.5.1 0 .2 0 .3.1.6.4 1.3.7 2 .8h.2v-3.8h-.2c-1.1-.2-1.8-.6-2.1-1.1-.4-.5-.5-1-.5-1.5 0-.8.3-1.4.7-1.9.5-.4 1.1-.8 2-.8h.2v-.9c0-.2.2-.4.4-.4s.4.2.4.4V7h.2c.7.1 1.4.3 2 .6.2.1.3.3.3.5 0 .3-.2.5-.5.5-.1 0-.2 0-.3-.1-.5-.3-1-.4-1.4-.5h-.2v3.6h.2c1 .1 1.7.4 2.1.9.5.4.7 1 .7 1.8 0 .9-.3 1.6-.9 2.1-.5.4-1.1.7-2 .8h-.2v.9c-.1.1-.3.2-.5.2zm.6-5.8h-.2v3.7h.2c.5-.1 1-.3 1.3-.6.3-.3.5-.7.5-1.2 0-.3-.1-.7-.3-1-.3-.5-.8-.8-1.5-.9zm-1-1.1V7.9h-.2c-.4.1-.8.2-1 .5-.4.3-.6.7-.6 1.3 0 .5.1.9.5 1.2.3.2.6.4 1.1.5h.2z" style="fill: #ffffff;"/><path fill="#609" d="M19.1 4.7c1.7 1.6 2.6 4.1 2.6 7.3s-.9 5.6-2.6 7.3c-1.6 1.6-4 2.4-7.1 2.4-3.1 0-5.5-.8-7.1-2.4-1.7-1.6-2.6-4.1-2.6-7.3s.9-5.6 2.6-7.3c1.6-1.6 4-2.4 7.1-2.4 3.1.1 5.5.9 7.1 2.4zm-.6 14c1.5-1.4 2.3-3.6 2.3-6.7s-.8-5.2-2.3-6.7C17.1 4 14.9 3.2 12 3.2c-3 0-5.1.8-6.5 2.1C4 6.8 3.2 8.9 3.2 12s.8 5.2 2.3 6.7C6.9 20 9 20.8 12 20.8c2.9 0 5.1-.8 6.5-2.1z" style="fill: #ffffff;"/></svg>
