<?xml version="1.0" encoding="UTF-8"?>
<svg xmlns="http://www.w3.org/2000/svg" viewBox="0 0 500 500"><g fill="#609"><path d="M250 250.4c-39.5 0-70.3-10.4-91.7-30.9-22.1-21.3-33.4-53-33.4-94.1s11.2-72.8 33.4-94.2C179.7 10.5 210.5 0 250 0s70.4 10.5 91.8 31.1c22.3 21.4 33.5 53.1 33.5 94.2s-11.3 72.8-33.6 94.1c-21.3 20.6-52.2 31-91.7 31zM458 500H42c-7.8 0-14.2-6.4-14.2-14.2v-41.6c0-39.8 12.4-73.8 35.8-98.2 25.6-26.7 63.6-40.8 110-40.8h152.6c46.4 0 84.5 14.1 110.1 40.8 23.6 24.5 36.1 58.5 36.1 98.3v41.6c-.1 7.7-6.5 14.1-14.4 14.1z" style="fill: #ffffff;"/></g></svg>
