<?xml version="1.0" encoding="utf-8"?>
<!-- Generator: Adobe Illustrator 26.1.0, SVG Export Plug-In . SVG Version: 6.00 Build 0)  -->
<svg version="1.1" id="Capa_1" xmlns="http://www.w3.org/2000/svg" xmlns:xlink="http://www.w3.org/1999/xlink" x="0px" y="0px"
	 viewBox="0 0 500 500" style="enable-background:new 0 0 500 500;" xml:space="preserve">
<style type="text/css">
	.st0{fill-rule:evenodd;clip-rule:evenodd;fill:#660099;}
</style>
<path class="st0" d="M485.5,360.6c-3.4-3.1-8.5-3.7-12.5-1.4c-36.3,20.6-75.5,24.4-95.7,24.9c-5,0.2-11.4,0.2-17.1,0.2
	c-40.8-0.6-173.6-15.6-173.6-182.1c0-122.8,70.9-163.6,130.4-176.4c5.8-1.2,9.4-6.9,8.2-12.7c-0.9-4.2-4.3-7.5-8.5-8.2
	c-20.5-3.8-37.3-4.6-45.6-4.8L248.4,0C192.5,0.8,10,20.8,10,249.3c0,41.2,11.6,246.9,240.1,250.6c7.5,0,15.6,0,22.2-0.2
	c37.1-0.6,162.4-11.6,215.7-126.7C489.9,368.8,488.9,363.8,485.5,360.6"/>
</svg>
