<?xml version="1.0" encoding="utf-8"?>
<!-- Generator: Adobe Illustrator 28.1.0, SVG Export Plug-In . SVG Version: 6.00 Build 0)  -->
<svg version="1.1" id="Capa_1" xmlns="http://www.w3.org/2000/svg" xmlns:xlink="http://www.w3.org/1999/xlink" x="0px" y="0px"
	 viewBox="0 0 24 24" style="enable-background:new 0 0 24 24;" xml:space="preserve">
<style type="text/css">
	.st0{fill:#660099;}
</style>
<path class="st0" d="M12,2.1C8.9,2.1,6.4,3,4.8,4.6C3,6.3,2.2,8.7,2.2,12c0,3.2,0.9,5.7,2.6,7.4c1.7,1.6,4.1,2.4,7.2,2.4
	c3.1,0,5.6-0.8,7.2-2.4c1.7-1.7,2.6-4.2,2.6-7.4S21,6.3,19.2,4.6C17.6,3,15.1,2.1,12,2.1z M20.6,12c0,3-0.8,5.2-2.2,6.5
	c-1.4,1.3-3.4,2.1-6.4,2.1c-2.9,0-5-0.8-6.4-2.1C4.2,17.1,3.4,15,3.4,12c0-3,0.8-5.2,2.2-6.5C7,4.2,9.1,3.4,12,3.4
	c2.9,0,5,0.8,6.4,2.1l0,0C19.8,6.8,20.6,9,20.6,12z M11.4,18c0,0.3,0.3,0.6,0.6,0.6c0.3,0,0.6-0.3,0.6-0.6l0-0.8
	c0.8-0.1,1.5-0.4,2.1-0.8c0.6-0.5,1-1.3,1-2.2c0-0.8-0.3-1.5-0.8-2c-0.5-0.5-1.3-0.8-2.2-0.9l0-3.2c0.5,0.1,0.9,0.2,1.4,0.5l0,0
	c0.1,0.1,0.2,0.1,0.4,0.1c0.4,0,0.7-0.3,0.7-0.7c0-0.3-0.1-0.5-0.4-0.6c-0.6-0.4-1.3-0.6-2.1-0.7l0-0.8c0-0.3-0.3-0.6-0.6-0.6
	S11.4,5.7,11.4,6l0,0.8c-1.7,0.2-2.8,1.3-2.8,3c0,1.1,0.5,2.4,2.8,2.8l0,3.4c-0.6-0.1-1.3-0.4-1.9-0.8C9.4,15,9.3,15,9.1,15
	c-0.4,0-0.7,0.3-0.7,0.7c0,0.3,0.1,0.5,0.3,0.6c0.8,0.5,1.7,0.9,2.7,1L11.4,18z M12.6,12.7c1.4,0.3,1.7,0.9,1.7,1.5
	c0,0.9-0.6,1.5-1.7,1.7L12.6,12.7z M10.5,8.5c0.2-0.2,0.6-0.4,0.9-0.4l0,3c-0.4-0.1-0.8-0.3-1-0.5c-0.3-0.2-0.4-0.6-0.4-1
	C10,9.2,10.2,8.8,10.5,8.5z"/>
</svg>
