<?xml version="1.0" encoding="utf-8"?>
<!-- Generator: Adobe Illustrator 26.1.0, SVG Export Plug-In . SVG Version: 6.00 Build 0)  -->
<svg version="1.1" id="Capa_1" xmlns="http://www.w3.org/2000/svg" xmlns:xlink="http://www.w3.org/1999/xlink" x="0px" y="0px"
	 viewBox="0 0 500 500" style="enable-background:new 0 0 500 500;" xml:space="preserve">
<style type="text/css">
	.st0{fill:#660099;}
</style>
<g id="Grid">
</g>
<g id="Artwork">
	<path class="st0" d="M371.4,351.3c41.9-20.2,83.5-50.8,124.4-91.7c2.7-2.7,4.2-6.3,4.2-10.1s-1.5-7.4-4.2-10
		c-79.6-79.8-162.1-120.1-245.1-120.1c-31.4,0-62.7,5.8-93.9,17.3L24.5,4.4C19-1.1,10-1.1,4.5,4.4s-5.6,14.6,0,20.2l124.1,124.1
		c-42,20.2-83.6,50.8-124.5,91.7c-2.7,2.7-4.2,6.3-4.2,10.1s1.5,7.4,4.2,10c79.7,79.7,162.1,120.1,245.2,120.1
		c31.4,0,62.7-5.8,93.9-17.3l132.2,132.2c2.8,2.8,6.4,4.2,10,4.2s7.3-1.4,10-4.2c5.6-5.6,5.6-14.6,0-20.2L371.4,351.3z M250.7,147.8
		c71.7,0,143.8,34.2,214.7,101.7c-38.2,36.5-76.8,63.3-115.4,80.4l-23.5-23.5c8.5-14.5,12.8-32.5,12.8-53.8
		c0-59.4-33.9-93.4-93-93.4c-21.4,0-39.4,4.4-54,13l-13.1-13C203.1,151.5,226.9,147.8,250.7,147.8z M249.3,214.6
		c-4.6,0-8.8,0.6-12.7,1.9L208,187.9c10.4-5,23.1-7.5,38.2-7.5c22.8,0,40.4,5.8,52.5,17.2c12.7,12,19.1,30.5,19.1,54.8
		c0,14.9-2.4,27.6-7.3,38l-27.7-27.7c1.1-3.6,1.9-7.8,1.9-12.7C284.7,228.6,270.8,214.6,249.3,214.6z M249.3,352.1
		c-71.7,0-143.8-34.2-214.7-101.7c38.2-36.4,76.8-63.2,115.4-80.3l63.7,63.7l-0.1,0.1l10.4,10.3c3.9,3.9,10.8,10.9,17.4,17.7
		c5.4,5.6,10.6,10.8,13.7,14l10.2,10.2l0.3-0.3l55.2,55.2C296.8,348.4,273,352.1,249.3,352.1z"/>
</g>
</svg>
