<?xml version="1.0" encoding="utf-8"?>
<!-- Generator: Adobe Illustrator 26.1.0, SVG Export Plug-In . SVG Version: 6.00 Build 0)  -->
<svg version="1.1" id="Capa_1" xmlns="http://www.w3.org/2000/svg" xmlns:xlink="http://www.w3.org/1999/xlink" x="0px" y="0px"
	 viewBox="0 0 500 500" style="enable-background:new 0 0 500 500;" xml:space="preserve">
<style type="text/css">
	.st0{fill-rule:evenodd;clip-rule:evenodd;fill:#660099;}
</style>
<path class="st0" d="M250.7,376.4c91.5,0,185.4-94.9,213.6-125.9c-28.3-30.9-122.8-126-214.2-126c-91.5,0-185.9,94.9-214.2,125.9
	C64.4,281.4,159.3,376.4,250.7,376.4z M496.5,240.9c4.6,5.5,4.6,13.7,0,19.2c-4.9,6-122.7,146.6-245.8,146.6S8.5,266.2,3.5,260.2
	c-4.7-5.5-4.7-13.7-0.1-19.3c5.1-6,123.4-146.6,246.6-146.6S491.6,234.9,496.5,240.9z M252.6,190.3c12.4,0.3,60.5,5.1,60.5,62.3
	c0,57.3-48.2,61.8-60.2,62c-1.9,0.1-3.8,0.1-5.8,0.1c-12.7-0.2-60.2-4.7-60.2-62.5c0-57.7,47-62,59.8-62
	C248.6,190.2,250.9,190.2,252.6,190.3z"/>
</svg>
