<?xml version="1.0" encoding="utf-8"?>
<!-- Generator: Adobe Illustrator 26.1.0, SVG Export Plug-In . SVG Version: 6.00 Build 0)  -->
<svg version="1.1" id="Capa_1" xmlns="http://www.w3.org/2000/svg" xmlns:xlink="http://www.w3.org/1999/xlink" x="0px" y="0px"
	 viewBox="0 0 500 500" style="enable-background:new 0 0 500 500;" xml:space="preserve">
<style type="text/css">
	.st0{fill-rule:evenodd;clip-rule:evenodd;fill:#660099;}
</style>
<path class="st0" d="M393.3,412.6l56.6,20.5l-69.1-143.9c-25,24-60.1,37.3-103.9,40.3l70,149.8l19.7-54.6
	C370.7,414.1,382.6,408.7,393.3,412.6z M155.5,480.5l69.2-152.2c-43.3-5-77.3-20.6-100.4-47.8L53,433.4l54.7-20.8
	c10.7-3.8,22.5,1.5,26.7,12L155.5,480.5L155.5,480.5z M256.6,21c-98.4,0-146.3,47.2-146.3,144.1s47.8,144.1,146.3,144.1
	s146.3-47.1,146.3-144.1C403,68.2,355.1,21,256.6,21L256.6,21z M467.4,424.6c3.3,7.1,2.3,15.4-2.8,21.5c-5,6.1-13,8.9-20.7,7.1
	l-58-20.9l-20.6,55.6c-4.2,8-11.2,12.1-18.9,12.1h-0.6c-7.9-0.1-15-4.8-18.4-11.9l-73.8-157.9c-2.1,0-4.2-0.1-6.3-0.2l-73.8,158
	c-3.3,7.1-10.5,11.7-18.4,12h-0.6c-7.7,0.1-14.7-4.1-18.4-10.9L114.4,432l-56,20.8c-9,2.1-17-0.6-22.1-6.7c-5-6-6-14.4-2.8-21.5
	l76.8-164.3c-13.9-24.8-21.4-56.3-21.4-95C89.1,52.6,150.8,0,256.6,0s167.6,52.7,167.6,165.2c0,44.9-10,80.1-28.5,106.3L467.4,424.6
	L467.4,424.6z M196.7,150.5c-0.7,2-0.2,4.2,1.3,5.6l21.8,21.8c2.5,2.6,3.6,6.3,3.1,9.9l-5.1,30.5c-0.4,2.1,0.4,4.2,2.1,5.3
	c1.4,1,3.2,1.1,4.8,0.3l26.8-14.5c3.4-1.8,7.5-1.7,10.9,0.2l26.5,14.3c1.4,0.9,3.3,0.7,4.8-0.3c1.7-1.2,2.5-3.3,2.1-5.3l-5.1-30.7
	c-0.5-3.6,0.6-7.2,3.2-9.7l21.7-21.7c1.5-1.5,2-3.7,1.3-5.6c-0.6-1.8-2.1-3.1-3.8-3.3l-30.1-4.5c-3.8-0.6-6.9-3.1-8.5-6.5L261,108.7
	c-1.2-2.3-4.1-3.3-6.4-2.1c-0.9,0.5-1.6,1.2-2.1,2.1l-13.4,28c-1.6,3.2-4.6,5.5-8.2,6.1l-30.2,4.6
	C198.7,147.5,197.2,148.8,196.7,150.5z M201,189.1l-18.2-18.2c-7-7-9.5-17.5-6.3-27c3.2-9.3,11.2-16,20.8-17.5l24.7-3.7l11.1-23.2
	c4.4-9.1,13.4-14.8,23.5-14.8s19.1,5.7,23.5,14.8l11.2,23.2l24.7,3.7c9.7,1.4,17.7,8.1,20.8,17.5c3.2,9.5,0.9,19.8-6.3,27
	l-18.2,18.3l4.3,25.8c1.7,10-2.4,20-10.8,25.8c-8,5.5-18.6,6.2-27.2,1.6l-22.1-11.9l-21.8,11.9c-8.7,4.6-19.2,4.1-27.2-1.6
	c-8.3-5.8-12.5-15.9-10.8-25.8C196.7,214.9,201,189.1,201,189.1z"/>
</svg>
