<?xml version="1.0" encoding="utf-8"?>
<!-- Generator: Adobe Illustrator 26.1.0, SVG Export Plug-In . SVG Version: 6.00 Build 0)  -->
<svg version="1.1" id="Capa_1" xmlns="http://www.w3.org/2000/svg" xmlns:xlink="http://www.w3.org/1999/xlink" x="0px" y="0px"
	 viewBox="0 0 500 500" style="enable-background:new 0 0 500 500;" xml:space="preserve">
<style type="text/css">
	.st0{fill-rule:evenodd;clip-rule:evenodd;fill:#660099;}
</style>
<path class="st0" d="M396.3,201.3c-3.6,0.1-7.1,0-10.7-0.1c13.4-36.9,18.2-83.5,18.6-137.5V51.6c23.6,2,63.8,14.2,63.8,74.4
	C468.1,193,417.8,201,396.3,201.3 M103.8,201.3C82.2,201.1,32,193.1,32,126c0-53.4,31.7-69.1,55.3-73.3v6.1
	c0.3,56.1,5,104.5,18.9,142.5C105.4,201.3,104.6,201.3,103.8,201.3 M404.3,15.9c0-8.9-7.2-15.9-16-15.9l0,0H103.2
	c-8.8,0-15.9,7-15.9,15.8v4.9C42.6,26.5,0,56.3,0,126c0,77.8,53.4,106.2,103.3,106.9c3,0.1,5.9,0.1,8.9-0.1c2.3,0,5.6-0.2,9.1-0.6
	c22.1,34.6,57.4,55.2,112.8,57.8v86.7c-60.1,5.6-93.3,43-93.3,107.4c0,8.8,7.2,15.8,16,15.8h186.6c8.8,0,16-7.1,16-15.8
	c0-64.4-33.2-101.7-93.3-107.4v-87c54.6-4.5,84.1-21.1,104.7-58.3h0.9c5.5,0.7,13.2,1.4,16.2,1.5c1.8,0.1,3.7,0.1,5.8,0.1h3.3
	c49.9-0.7,103.3-29.2,103.3-106.9c0-74.1-48.2-103.2-95.7-106.1L404.3,15.9L404.3,15.9z"/>
</svg>
