<?xml version="1.0" encoding="utf-8"?>
<!-- Generator: Adobe Illustrator 26.1.0, SVG Export Plug-In . SVG Version: 6.00 Build 0)  -->
<svg version="1.1" id="Artwork" xmlns="http://www.w3.org/2000/svg" xmlns:xlink="http://www.w3.org/1999/xlink" x="0px" y="0px"
	 viewBox="0 0 500 500" style="enable-background:new 0 0 500 500;" xml:space="preserve">
<style type="text/css">
	.st0{fill:#660099;}
</style>
<path class="st0" d="M251,500c-3.8,0-7.6-0.7-11.2-2.1c-11-4.5-17.8-15.3-17.6-28.1l-0.1-92.6c-0.3-0.5-0.6-1-1-1.4l-174.5-0.5
	c-15.6,0.2-27.1-3.7-35.1-11.9c-8-8.2-11.7-19.7-11.2-35.3V175c-0.2-10.7,0.8-26,11.1-36.7C21.7,127.7,37,126.2,47.6,126h0.2
	l170.2,0.1c1.4-0.2,2.7-0.6,4-1.3l-0.2-90.3v-0.1c0.1-21.7,10.5-29.1,16.7-31.6C249-1.6,261.2,2.3,272,13.3l219.6,220.9
	c2.2,2.1,8.5,8.4,8.5,17.5c0,3.8-1.3,9.6-7,15.1l-215,220.8C270.3,495.7,260.5,500,251,500z M222.1,376.6L222.1,376.6z M223,375.8
	L223,375.8z"/>
</svg>
