<?xml version="1.0" encoding="utf-8"?>
<!-- Generator: Adobe Illustrator 26.1.0, SVG Export Plug-In . SVG Version: 6.00 Build 0)  -->
<svg version="1.1" id="Capa_1" xmlns="http://www.w3.org/2000/svg" xmlns:xlink="http://www.w3.org/1999/xlink" x="0px" y="0px"
	 viewBox="0 0 500 500" style="enable-background:new 0 0 500 500;" xml:space="preserve">
<style type="text/css">
	.st0{fill-rule:evenodd;clip-rule:evenodd;fill:#660099;}
</style>
<path class="st0" d="M478.6,230.4H71.1l184-194.5c7.9-8.8,7.3-22.3-1.6-30.3c-8.5-7.7-21.6-7.3-29.6,0.9L5.8,237.1
	c-0.9,1-1.4,2.3-2.2,3.4c-0.7,1.1-1.6,2.1-2.1,3.3c-1,2.6-1.6,5.3-1.6,8v0.1c0.1,2.7,0.6,5.3,1.6,7.9c0.5,1.3,1.4,2.3,2.1,3.3
	c0.7,1.1,1.1,2.3,2.1,3.3L220,493.1c8.1,8.6,21.6,9,30.2,0.9c0,0,0.1,0,0.1-0.1c8.6-8.1,9-21.7,0.9-30.3l-180-190.4h407.4
	c11.8,0,21.4-9.6,21.4-21.5C500,240,490.4,230.4,478.6,230.4"/>
</svg>
